# xmcd
#
# Track frame offsets:
#	150
#	20830
#	40977
#	56946
#	69876
#	87460
#	104196
#	122259
#	141132
#	157020
#	178662
#	199507
#	218995
#	236442
#	255066
#	276959
#
# Disc length: 3928 seconds
#
# Revision: 0
# Processed by: cddbd v1.4PL0 Copyright (c) Steve Scherf et al.
# Submitted via: AudioConverter v4.01 Copyright (c) Dennis Rebentrost
#
DISCID=e80f5610
DTITLE=_q______ - - ____F
DYEAR=2000
DGENRE=Country
TTITLE0=___y  1
TTITLE1=___y  2
TTITLE2=___y  3
TTITLE3=___y  4
TTITLE4=___y  5
TTITLE5=___y  6
TTITLE6=___y  7
TTITLE7=___y  8
TTITLE8=___y  9
TTITLE9=___y  10
TTITLE10=___y  11
TTITLE11=___y  12
TTITLE12=___y  13
TTITLE13=___y  14
TTITLE14=___y  15
TTITLE15=___y  16
EXTD=
EXTT0=
EXTT1=
EXTT2=
EXTT3=
EXTT4=
EXTT5=
EXTT6=
EXTT7=
EXTT8=
EXTT9=
EXTT10=
EXTT11=
EXTT12=
EXTT13=
EXTT14=
EXTT15=
PLAYORDER=
